/* XPM */
static char *result[] = {
/* columns rows colors chars-per-pixel */
"64 64 94 2 ",
"   c #061A0F",
".  c #091B0F",
"X  c #0C1D11",
"o  c #111F12",
"O  c #1B1B1D",
"+  c #2A1F16",
"@  c #221D1C",
"#  c #351D1F",
"$  c #192314",
"%  c #2F2414",
"&  c #342711",
"*  c #382A15",
"=  c #35221B",
"-  c #3C241A",
";  c #332E1C",
":  c #3F331F",
">  c #41251A",
",  c #5B2C17",
"<  c #50241C",
"1  c #762F16",
"2  c #6C3116",
"3  c #773016",
"4  c #7E3018",
"5  c #621F21",
"6  c #7C1E25",
"7  c #423521",
"8  c #6E2122",
"9  c #674329",
"0  c #6A472D",
"q  c #85221D",
"w  c #833611",
"e  c #853812",
"r  c #8B3913",
"t  c #973316",
"y  c #9A3517",
"u  c #923B12",
"i  c #9D3815",
"p  c #A63E0F",
"a  c #A93E0E",
"s  c #A33E12",
"d  c #862720",
"f  c #892720",
"g  c #8C431C",
"h  c #A7400F",
"j  c #AA410F",
"k  c #A74011",
"l  c #A94110",
"z  c #AC4916",
"x  c #A2411B",
"c  c #B34B1C",
"v  c #8F4235",
"b  c #934535",
"n  c #865234",
"m  c #B54E20",
"M  c #B94F20",
"N  c #B85021",
"B  c #B55F24",
"V  c #B65529",
"C  c #A35A36",
"Z  c #B66125",
"A  c #B96324",
"S  c #BD6F2D",
"D  c #AB633F",
"F  c #B3613A",
"G  c #C15A2C",
"H  c #C06F2C",
"J  c #C96234",
"K  c #8F4C42",
"L  c #AE6541",
"P  c #B16642",
"I  c #BE6B45",
"U  c #A97751",
"Y  c #D36D40",
"T  c #D86F42",
"R  c #D77145",
"E  c #DA7144",
"W  c #D6764D",
"Q  c #D9774D",
"!  c #DD784D",
"~  c #E57B4F",
"^  c #E37C51",
"/  c #E97E52",
"(  c #CB9142",
")  c #C0995B",
"_  c #CCA256",
"`  c #D6AA51",
"'  c #D8AA51",
"]  c #DBC870",
"[  c #E9D169",
"{  c #ECDC6F",
"}  c #E2D374",
"|  c #F6F27E",
" . c #FCFD84",
".. c #FEFF88",
/* pixels */
"o o o o o o o o o o o o o o o o o o o o . . X     : L ^ ^ ^ ! ! ^ ^ ^ ^ / D >       X o o o o o o o o o o o o o o o o o o o o o ",
"o o o o o o o o o o o o o o $ X X X X O ; 7 : : : 0 I ^ ^ ^ ^ ^ ! ^ / ( ^ I 0 7 : 7 7 = $ X . o o o o o o o o o o o o o o o o o ",
"o o o o o o o o o o o o $ X X X X .   ; n L L L L P W ! ^ ! ^ ^ ^ ^ ! ! ^ W P L L L L n ;   X o X o o o o o o o o o o o o o o o ",
"o o o o o o o o o o o o . $ . $ ; 7 : 0 Y ^ / ^ / ^ ^ ^ ^ ^ ! ! ! ^ ^ ^ ^ ^ ^ ^ ^ / / I 0 : 7 ; O X X o o o o o o o o o o o o o ",
"o o o o o $ o o X $ X $ $ . . ; K L L I Q ^ ^ ^ / ^ ^ ^ ^ ^ ^ ^ ^ ^ ^ ^ ^ ^ ^ ^ ^ ^ ^ W Y I L n ; X X X $ X o o o o o o o o o o ",
"o o o o o X o o $ . $ . . $ ; 0 Y ( / ^ ^ ^ ^ ! R Y Y Y Y Y Y Y Y Y Y Y Y Y Y R ! ^ ^ ^ ! / ( I 0 ; $ X X X o o o o o o o o o o ",
"o o o o o o o o . $ $ . . ; n I Q ^ ^ ^ ^ ^ ^ R V m c m m m m m m m m m m m m V R ^ ^ ^ ^ ^ ^ Q I 0 : X o $ X X o o o o o o o o ",
"o o o o o o o o o . . $ ; 0 I / ^ ^ ^ ! R Y Y J c s l a p p l p s s a s a a s m J Y Y R Q ^ ^ ^ ^ Y 0 ; $ X X $ o o o o o o o o ",
"o $ $ X $ X X $ o .   ; n Y Q ^ ^ ^ ^ R V N c c z a s a l k k k a a l l l a p l c c m V R ~ ^ ^ ^ Q I n ;   X o o o o o o o o o ",
"o X X X X $ X X . $ ; 0 I ( ^ ! R Y Y J c l p p s l l l l l l a a l l l l j l l l p l c J R Y R ! ^ / I 0 ; $ X o o o o o o o o ",
"o o X $ X $ X X . ; n I Q / ^ W V N c c k k h l a l l l l l l l l s l l l l l l l s h l c m N V W / / Q I n ;   X $ o o o o o o ",
"o o X $ X X X $ ; 0 Y ^ ^ ! R J c p k p l l l h l s r e r r r r e r r r e r s l h l l l h h h c J R ! ^ / I 0 # $ . . o o o o o ",
"o o o o o X X ; 0 Y Q ^ ^ R G m l k p k l l l h l u , > > > > > > > > > > , u l l l l l l p h l c V T / ^ ! Y n ; . . $ o o o o ",
"o o $ X X O ; 0 W / ^ ! R J c s h l l l h s u r r 2 = O O O O O O O O O O = 2 r r u l j l l l h s c J R ! ^ ^ I 0 ; $ o o o o o ",
"$ X X X X ; n Y W ^ ^ R G m s a s l l l l u , - > = @ O O O O O O O O O O @ - > > , r l l h k k l l c V R ^ / ~ I n ; o X o o o ",
"X $ X X   7 L / ^ Q R J c s a a l l l l u 2 = O O @ - > > > > - > > > > > = @ O O = 2 u i j h k l a a c J E ~ / ( D 7 . . o o o ",
"X $ o . . 7 P / ( ! G a a a a x a l z u , = @ O $ = 2 r r r r r r r r r r 2 = O O @ = , u l l l k k l z c V E ( / I :   X o o o ",
"X X X $ ; 0 I ~ E J c a a a a a l a u 2 = @ - - # < r z l a l l l j l l l u , - > = @ = 2 u k l k k l s h c J E ! Y 0 ; $ X o o ",
"$ X . : 0 Y Q R V c k k m s a a l u , # @ = 2 4 8 8 y l l l l l l h l h l s u r r 2 = @ = , u l l l l s h l m V W Q Y K ; X X o ",
"X X . 7 I ^ E J c s l k a s c s u 2 = @ = , u i 6 6 y l l l l l l l l s l l l l l u , = O = 2 u s l l l l h h c J R ! L 7 X X o ",
"X X X 7 P E G c l l l k l l l u , = @ = 2 u a i 6 6 y l k l k k l l l l s l l l l s u 2 = @ = , u l j l l l h l c G ! P 7 X X o ",
"$ X X 7 P W M l s l l l l s u 2 = @ = , u l l y 6 6 y l l l k k l l l s l l l l l l l u , = @ = 2 u s l l l k h a M T P 7 X X o ",
"X X X : P E N p l l l l l u , = @ = 2 u s l l y 6 6 y l l k l l k k l k s l l a l l l s u 2 = @ = , u l l h k h a m R L 7 X X o ",
"X $ ; 9 F J c p a l l s u 2 = @ = , u l l l l i d d y l l k l l k k k l l s i s s h l j j u , = @ = 2 u i j k h s c J F 9 ; $ X ",
". : n F V c z s l h l r , = @ = 2 u s l l l k s i i s l k k k l l k l l l y d d i k k l l k u 2 = @ = , u l l l a l c V F n ; X ",
"X 7 L E c p p l l l l r - O O - r l l s l s k l l l l s k k z s k l l l l t 6 6 y l h k k l j e - O O > r l h l l a p M E P 7 X ",
". 7 P E N p p l l l j r > O O > r l l l k l k l l l l l k k l l z l l l l y 6 6 y j z k k l z r > O O - r l l l l s s N E P 7 X ",
"X 7 D T N p l h l k r 3 - @ = , u l l l s z k k l k l l k k k l l s k l l t 6 6 y h h k k l h u , = @ - 2 u s h l k a N T L 7 . ",
". 7 P E N l l l h r , = % = 2 u s l k l k l k l k k l l k l z l l k l k l y 6 6 y k k l k l l k r 3 = @ = , r l l l p N T D 7 X ",
"X 7 P J N l l h l e - O O - r l l s k l k k k k l l l l k k k k k l k l l y 6 6 y k l k l l l l j r > O O - r l h h p N T L 7 . ",
". 7 L E N k k l l r > O O > r l l a l k l k k k l l l l k k k k z h k k z y 6 6 y k l k k k l l h r > O O > e l l l h N E L 7 X ",
"X 7 L R N l k h l r > O O > e l l l l l k l k k y i s l l k k k k k k h k y 6 6 t l k l k l l l l r > O O > r l h l p M R L 7 . ",
". 7 P E N a s l s r > O O > r l l k l l l l l i d d i l l l l z l k k l z y 6 6 y h l l l l l l l e > O O > r l l l a M E P 7 X ",
". 7 C J c s l l l r > O O - r l l l k l l l l y 6 6 y l k l l k k l l k h y d q y l h p p s l l l r > O O > r a l s a c J C : X ",
"X * g c z a a l l r > O O > r l l l l l k l l y 6 6 y l l k k l l k l l k k i i p p p p p p a l a e > O O > r l l l s z c g * X ",
"X & e l l l l l l r > O O > r l l k z k l k l u 6 6 u k k k l k k l k k k k l j a z B S S Z z a l r > O O > r l l l l l j 4 & X ",
"X & e a l l l l l e > O O > r l l k l k k l l y 6 6 y l k l k l l l l s k k z h p B ` [ [ ` B a a r > O O > r a l h j j j e & . ",
"X & e l l l l l l r > O O > r a l l k l k k j y 6 6 y l l k l k k l l l k k h z Z ( {  ...{ ( B z r > O O > r l h h z j j e & X ",
"X & e h l l l l a e > O O > r l z k k k z h l y 6 6 y l k l k l l k l l h p p Z ' { |  . .| { ' A w > O O > w a j z j j j 4 & X ",
"X & w h l l l l l r > O O - r l l k k k k k l y 6 6 y l k k z k k l l l h p p S [ .. .| |  ...[ S w > O O > r a h h j j j e & X ",
"X & e j j h k j l e > O O > r l l l l k k l k t 6 6 y l l k k l k k k k l p p S [ .. .| |  ...[ H w > O O > r l h k l l l e & X ",
"X & e j j h k l a r > O O > r l l l k l k l l y d q y l k l l k k k z k l h p B ) } |  . . .} _ B e > O O > e j l l l l l e & X ",
"X & w z l k z h l r > O O > e l l l l k k k k k i i s l l l k l k k l l l l h x b U } ....} U b x r > O O > r j l l k l h g & X ",
"X & 4 j j k h j l r > O O > r l l l k l l k k k l l l s k k l k k k k l l l l y q b ) ] ] ) b q i r > O O > r j j k l l h 4 & X ",
"X & e l l l l l l r > O O > r l l z k k z l k k s l l l s l k k k k k k k l l k y y v K K b y i a e > O O > r j h h j j j 4 & X ",
"X & 4 j l l l l l r > O O > r l l k k k l l l l z k l l l l z k l z k k k l l l j y q 6 6 q i j j r > O O > e j z h j j j w & X ",
"X & e j l k l l l r > O O > e l l l k k k l k l k k k k l k k k s l l k k k l l l s y t t y p h j e > O O > e j j h j j j 3 & X ",
"X & e l l l k l l e > O O > e l l l k k l k k k l l l k k k k k l l k l k k i y l l h j l l h l l r > O $ > e j z h j j j g & X ",
"o & 3 z j l l l l g > O O > r l l l l l k k k l l l l k s l l k l l k l l i d d i h k k l l l h l r > O O > r l a l l l l e & X ",
"o & g j l l l l h e > O O > r l l l l k k l l k y y l k l k l l k k l k l y 6 6 y z k k k l l l j r > O O > e l l l l l l e & X ",
". & 3 j j l h h j e > O O > r l l l k k k l l y d d i k l l z k z l k l l y 6 6 y j k k l l l l l e > O O > r l l l l l j e & X ",
"X & w j j l h h j e > $ O > r l z k k k k l l t 6 6 y k l l l k l l l k l y 6 6 y h k k l k l l a r > O O > r j l l l l j 4 & X ",
"X & 3 j j j j j l r > O O > e l l k l k l l l y 6 6 y l l l k k l l k l l y 6 6 y k k l k l k l l r > O O > e l l l h j j 4 & X ",
"X & g j j j j z l e > O O > r l l l k k l l l u 6 6 u h l l k k l k k k l u 6 6 y j l k l k z l l r > O O > r l l l j j j e & X ",
"X & g j j j j h l r > O O > r l l l l l l l z t 6 6 y h l l l k k k k k l y 6 6 y j k z k l l j l r > O O > r l l l j j j 3 & X ",
"X & 3 j j j j j l e > O O > r j l k l l l l k y 6 6 y z l l l l l k k k k i d d i h h h l k l l l r > O O > r s l l j j j g & X ",
"o & w l l l l l l r > O O > r l h h h l l l k y 6 6 y l h h j j k z l k l i i i i h h k l l l l h r > O O > r j l l l l j g & . ",
"X & w j l l l l a r > O O > e l j j j l l l k y 6 6 y l h h j j l l l k k l j h l k k l l k l l j r > O O > e j l l l l j 4 & . ",
"X & w l l s l l l r > O O > r a j j h h l l l u 6 6 u h h h j j l l l l l h z h l l h z k j k l j r > O O > r j l h l l h g & X ",
"X & e l l l l l l r > O O > r l j j j h l l h k 6 6 k j j z j j l l l l l l i i l h h j z h j l j r > O O > u j l l h l h 4 & X ",
"X & 4 j l l l l l e > O O > r j j j j h l j l y 6 6 i l j j j j h h j j j i q f i l j j l j l j j r > O O > w j z h j j j 3 & . ",
"X & g j l l l l l r > O O = 2 r g 4 4 g e w w 3 8 , 1 e 3 g g 3 4 g 4 e e 3 5 8 3 e e e e e w w e 2 * O O > w j j j j j j g & . ",
"X & 3 j l l l l l r > O @ @ & & & & & & & & & % + % = & & & & & & & & & & % % @ % & & & & & & & & = % O O > g j j j j j j 3 & . ",
". & w j l l l h l r > @ O O o X X X X X X X X X X X X X X X X X X X X X X X X . X X X X X X X X X o O O @ * w z h h j j j g & o "
};
