/* XPM */
static char *result[] = {
/* columns rows colors chars-per-pixel */
"64 64 51 1 ",
"  c #070F11",
". c #080F12",
"X c #0B1115",
"o c #0C1419",
"O c #0D191F",
"+ c #0D1B22",
"@ c #121D24",
"# c #0E212A",
"$ c #11232C",
"% c #1C222B",
"& c #0F2833",
"* c #122733",
"= c #1B2631",
"- c #122834",
"; c #1E2834",
": c #132F3C",
"> c #13303E",
", c #232936",
"< c #262B38",
"1 c #2C2E3C",
"2 c #153444",
"3 c #1E3545",
"4 c #143748",
"5 c #1F3748",
"6 c #16394A",
"7 c #1A3A4C",
"8 c #203747",
"9 c #213748",
"0 c #223B4C",
"q c #3A3C4F",
"w c #233E52",
"e c #264054",
"r c #2C4256",
"t c #2D4358",
"y c #394155",
"u c #33465C",
"i c #3B445A",
"p c #35485F",
"a c #3C485F",
"s c #3D4A62",
"d c #46465D",
"f c #48475E",
"g c #434B63",
"h c #4B4B64",
"j c #484F69",
"k c #4C516C",
"l c #52546F",
"z c #575673",
"x c #595774",
"c c #5A5875",
"v c #5D5A78",
/* pixels */
"oooXoXXXXXoO:64466466466666>+XXXXXX+:ekccccccccccccje>44466>+XXX",
"oXXoO++++@@;9reeeeweewew666>$++++++=>plczcccccccxcckueee766>$+oX",
"oXXO*>:::3yhhkkjkjjjjjjsw466>>>>:::>akzccczcccccccczkjjae466>-+X",
"XoO$26670ukvcccccccccvvkuw66666667eukccccccczcccczcccvvke4467>+X",
"XO*2466wskxcccccczccccczksw466664eskcccczcccczccczccccvkr7667>+X",
"X+>767wukccxzccccccccxxcvkue6446eulccczccccccccccccccccje>>66>+X",
"X+:760skcccxzccccccccxxcczksw44wplzcczcccczccccccccccccg;#>76>+X",
"oO*>4ekvccxcccxccxccccczccckueergkzcccccccccccccccczzcvd%O:6>-+X",
"Xo+#2ekccczccccxccccccccxcczkkkstukcczccccczccczxccxcccd%O:>$OoX",
"oX.+:ekccccccccccxxcccczcxxcccckeejccccccccccccccxxcccki=#>>$OoX",
"XX +:ekccxcxccxcccxccccccxzccccjeejccccczccczccccxcccku0>>66>=OX",
"Xo+#>ekcccccxxccccccxcccccccccckttkcccccccccccccxccxlsw476666>$@",
"XO*>4ejccccccccxcccccccccxccccczkkzcccccccccccczxcckuw64666676>>",
"##264ejvcxccccccccxcxxcxccxccxzccccccczcccccczcccxksw64666766667",
">>444ejcccccxccccxxccccccccccxcccvcccczcccccczccvkuw6>4666776666",
"66664ekcczxcccccccccxcxcccczxcczljjkzccczcczccczksreeeee>>>66666",
"66646ejcxxxvxxcccccccccccccxxcckuweukccczcccxvclurgjkkky=#>76666",
"67664ealzxxxxccxccxccccxcxxcxxka7440skzcccccclhieukcccch1%-:6666",
"676466eulvxxxvxccccccccccxxcckue6646eukcvcccvf1<ikccccczhy%#:667",
"676762>3akxvxxxxxcccccczxccxkgreeeeeersjjkjjkd<1hcccczccvh1=>6>:",
"66666>#$3ulvcxxccccccxczccvkutgjjjjkksueeeeeeeifzccczczcczhye>$+",
">>46e8$#&8akxcccccccccccczksrukcccccckuwe066eplxcczcccccccvki>@X",
"@#>esa8&#$8pkvcvccccccccckurskzcccccczkjjs0wakzcczccczczccccly% ",
"X@8pllu3$+&8ygddfgjjjkjkksrukvcxxccccccccjeejvczcccccccccccvvf% ",
" %ykxxla8&#@%%%%%,0eeeeeergkzccxxccxxcxcckeejccczcccczccczzccf% ",
"X%fvccxkp8$OO+OOO#>6447eerkvcxxccccxcccccjeejccxccccccccccccch1%",
"X%fcvxczka3:::::>>264eakkkzccxzccxccxccccjeejccczcccccccccccczhf",
"X%dvcxxvvkue76666666eukcccxxxcccccccccccxgeeskccczzcccccccczcccc",
"X%dccxxxczkse466664eakxccccxxccccccccxcccje6eplcczcccccccccczccc",
"X%dvvxxxxccke6we664ekvcxxccccccccxxcccccvje4:8pkccccccczzcczcccc",
"X%dvcxxxxcvkewsse44ekvcxxcxcxcccxxxccvccvke:##8plcccccczzccccccc",
"X%ykzcvxcxkgtukkueerskxxcxxcccczxcczkjjjjgt8;=>eakjjjlzccczcczkj",
"o@>ukvccvkutskzzkjkgtukcccccccccxcckueeeetsjfi76eeeeeukcccccckpe",
" +>eskjjkstukcccccckutskzccczczcczkstee0eukvvkue6444>eskxccxka3>",
"X+:7eeeeetskcvccccczksrujcccccccvkutsjjjjkzcccks0>4467epkcvku3$+",
"X+>664467ukccxczccccvkutgllcccvckstukvccccxxccclueeee767skkse>OX",
"X+>5664eskxcczcccccccllgepkcccvkutskxccccccxxcclkjjkkse6eeee6>OX",
"X+:7677pkvcccccccccxzcckttgjjgfieukvcxxcxcccccccxvcvvkp7>>464*OX",
"X+:667skzccczcccccczxccckgteee,<ikxxcxxcxcxccxxcccxccxki=#>>$OoX",
"O$>7eulccczccccccccccxccvktee<O%fvvxxcxcccccxccxcccxxcvf%O>>OXXo",
">>>eakxccczccczcccccxxxccxkjjy#%dvcczcccccccxccccccxccvf%O>>+XXo",
"77epkccczcccccccccxcccxxxcxvvd%%dcccccccccccccxcxxxcccky;#>>$OoX",
"6eplxccxcccccccccccccccxxccvvd%%dcccccccccccxccccxxccku0>>27>-OX",
"4ejccxxccczczccccxcxxcxccxcccg;,fvcczccccczcccccxcvzhi0676666>$+",
"6ekccxxxzcccccccxcccccccccccch88jvccccccccccccccxvvh1=>6666672>>",
"4eskzccccccccccccccccxcxxcxccjeeskccczxcccccclccclhq=#>767667776",
"660pkcxccccczccxcccccccxxcxccje7epkccxxcccccccccvf1%->2266766676",
">>4ekccccczcccccccxccxcccccccke447skzccxlcccccclhy<;0eee>>266676",
"##>ekcccczzcccccccccczccccccvje6660plvcxxcxxxcvh1,qfhlki=#>66774",
" O:esjkkzccxcccxczcccczccccccje76447akzxccccczhq,1hvccch1%->74>>",
"XO>6eeeikcccxccxccccccccccczcje646440ukvvccvch1,yhzvccczhq%#>>$+",
"X+>644>8alcccxxcccxcccccccccvh9>7eeeeukzkjjjjd<1hcccxxccvh1;3>+X",
"X#>66>#$5plvcxxxccccxcccczccvf,%ykkkjkxkueeeeeihzccxxxxxczji0:OX",
"XO-27>$#&5akxccxcxxccxxcccvlhy<1hvvxcvvku064eulxcxxccxcxxcvku3@X",
"XXO$>6>-##3ukcccczxxcxxccvvh1,yhlvxcccxzka7eakzccxxccccxxccxky% ",
"XXX+>67>##-0ajkkzcccccczjjgy,1fvvxxxcxxcvktukvcxxccxxcxccxccvf;O",
"Xo +>672>-#$8eetkccccccku8;<yhzccxxccxxcczkkzccxzccccczccxxccj9>",
"Xo+$>7667>##>7eukccxcccku3#;fvcxxxxccxcxzccccccxccccccccxccccje6",
"oO->477672>>>epkzcccxcczki35jvccxcccccxxcccccvcxzcccccccccxccke6",
" +>6744667766rjvcxxccxxcvkuugkzccxxxcccxccczkkzccczcxccccxxccje2",
"X@>7676666666ejccxxccxxccxkjtukccxxccccxxcckuukccccczccccxcccje6",
"XO->266667624eakxcxxcxccczksw0sklccxcxcccxka33aklccccccccccxlae6",
"XoO$>776667666eukvcxxccxxkue66eukvcccccccku3$$3ukccccccxcccku774",
"X o+>6666766644ejccccccccje4442ekcccccxccje:OO:ejccxcccccccje466"
};
