/* XPM */
static char *result[] = {
/* columns rows colors chars-per-pixel */
"64 64 205 2 ",
"   c #08170D",
".  c #0B190F",
"X  c #07170D",
"o  c #101E0F",
"O  c #0E1C11",
"+  c #0D1F1A",
"@  c #111F12",
"#  c #0F211B",
"$  c #122013",
"%  c #1B2917",
"&  c #12231C",
"*  c #182516",
"=  c #24240D",
"-  c #2C270B",
";  c #252710",
":  c #2E2C11",
">  c #252A1E",
",  c #2D341F",
"<  c #35361B",
"1  c #0D272C",
"2  c #1A2A21",
"3  c #1A2F2C",
"4  c #142722",
"5  c #0F2A31",
"6  c #0D2E3F",
"7  c #122D32",
"8  c #0F303D",
"9  c #11323E",
"0  c #1B353E",
"q  c #2D2F21",
"w  c #2E3622",
"e  c #2F3825",
"r  c #26322E",
"t  c #323523",
"y  c #343924",
"u  c #283739",
"i  c #52360A",
"p  c #533B14",
"a  c #4A3A10",
"s  c #6B3C00",
"d  c #374324",
"f  c #3A4626",
"g  c #3F4528",
"h  c #374237",
"j  c #734D14",
"k  c #7D561E",
"l  c #434B29",
"z  c #4A552D",
"x  c #47522C",
"c  c #474A33",
"v  c #545B38",
"b  c #6F4F21",
"n  c #7A5923",
"m  c #5A613B",
"M  c #60623A",
"N  c #133849",
"B  c #2A3C4A",
"V  c #2F4342",
"C  c #324544",
"Z  c #334847",
"A  c #36494D",
"S  c #3D5553",
"D  c #375652",
"F  c #394F53",
"G  c #504640",
"H  c #495849",
"J  c #505542",
"K  c #555A49",
"L  c #445E56",
"P  c #465552",
"I  c #535E55",
"U  c #755F47",
"Y  c #685951",
"T  c #5E6749",
"R  c #496457",
"E  c #536256",
"W  c #586757",
"Q  c #4A634D",
"!  c #686846",
"~  c #786D4A",
"^  c #747C42",
"/  c #74704E",
"(  c #78734F",
")  c #746354",
"_  c #79785B",
"`  c #65735B",
"'  c #815F1A",
"]  c #925B15",
"[  c #886219",
"{  c #966116",
"}  c #9A6318",
"|  c #9D6C19",
" . c #A2711B",
".. c #AB791F",
"X. c #815F27",
"o. c #886829",
"O. c #9A6A26",
"+. c #8D702B",
"@. c #88733E",
"#. c #A77B2A",
"$. c #A0732B",
"%. c #806F4D",
"&. c #877548",
"*. c #907C4E",
"=. c #8F6F57",
"-. c #906F58",
";. c #8A7A52",
":. c #807E5F",
">. c #8B7B5C",
",. c #807357",
"<. c #947459",
"1. c #9A7A5B",
"2. c #937E56",
"3. c #A17E40",
"4. c #8A7F60",
"5. c #748861",
"6. c #AD832F",
"7. c #AC8331",
"8. c #B99335",
"9. c #B28934",
"0. c #95804F",
"q. c #9A875B",
"w. c #969C52",
"e. c #AB8441",
"r. c #AD8A49",
"t. c #B18D4D",
"y. c #AC8D52",
"u. c #A2865E",
"i. c #A4895F",
"p. c #A88A55",
"a. c #B18F52",
"s. c #A1975B",
"d. c #A99C5E",
"f. c #BC9E53",
"g. c #B29755",
"h. c #B0A84F",
"j. c #ABA95D",
"k. c #BEA55A",
"l. c #B4A75D",
"z. c #828060",
"x. c #958A63",
"c. c #9D9565",
"v. c #9E9966",
"b. c #A58B61",
"n. c #AA8F62",
"m. c #A18660",
"M. c #AD9363",
"N. c #A59B64",
"B. c #A69963",
"V. c #B29764",
"C. c #9CA868",
"Z. c #ACA866",
"A. c #B8A267",
"S. c #BBA669",
"D. c #BEAA6A",
"F. c #B6A167",
"G. c #BBBC69",
"H. c #B9BE71",
"J. c #B6BC71",
"K. c #CEB44F",
"L. c #C0A75A",
"P. c #C3AA5B",
"I. c #CEB95F",
"U. c #C5AE4B",
"Y. c #C7B46D",
"T. c #C9B76E",
"R. c #CAB96F",
"E. c #C9BF65",
"W. c #CABB71",
"Q. c #C2AB6B",
"!. c #D4C15D",
"~. c #C3C767",
"^. c #C6C46B",
"/. c #C6C969",
"(. c #C9C668",
"). c #DDCD62",
"_. c #D6C66C",
"`. c #DCD064",
"'. c #CEC271",
"]. c #C6CD74",
"[. c #C9CC73",
"{. c #D3C572",
"}. c #D5C974",
"|. c #D8CB74",
" X c #D5D671",
".X c #DCD375",
"XX c #D3DA79",
"oX c #CED478",
"OX c #E2D465",
"+X c #E3D669",
"@X c #E5D96A",
"#X c #E0D877",
"$X c #E1D779",
"%X c #E4DB79",
"&X c #E8DD7A",
"*X c #E9E276",
"=X c #E6E07A",
"-X c #EAE47B",
";X c #EDE97D",
":X c #F2EC7F",
">X c #F4F37F",
",X c #EEEA81",
"<X c #F5F280",
"1X c #F8F781",
"2X c #FEFE84",
/* pixels */
"@ @ @ @ @ @ @ @ @ @ @ @ @ @ @ @ @ @ @ @ @ @ @ @ @ @ @ @ @ @ @ @ @ @ @ @ @ @ @ @ @ @ @ @ @ @ @ @ @ @ @ @ @ @ @ @ @ @ @ @ @ @ @ @ ",
"@ @ @ @ @ @ @ @ @ @ @ @ @ @ @ @ @ @ @ @ @ @ @ @ @ @ @ @ @ $ @ @ @ @ @ @ @ @ @ @ @ @ @ @ @ @ @ @ @ @ @ @ @ @ @ @ @ @ @ @ @ @ @ @ ",
"@ @ @ @ @ @ @ @ @ @ @ @ @ @ @ $ @ @ @ @ @ @ @ @ @ @ @ @ @ @ @ @ @ @ @ @ @ @ @ @ @ @ @ @ @ @ @ @ @ @ @ @ @ @ @ @ @ @ @ @ @ @ @ @ ",
"@ @ @ @ @ @ @ @ @ @ @ @ @ @ @ @ @ @ @ @ @ @ @ @ @ @ $ @ @ @ @ @ @ @ @ @ @ @ @ @ @ @ @ @ @ @ @ @ @ @ @ @ @ @ @ @ @ @ @ @ @ @ @ @ ",
"@ @ @ @ @ @ @ @ @ @ @ @ @ @ @ @ @ @ @ @ @ @ @ @ @ @ @ @ @ @ @ @ @ @ @ @ @ @ @ @ @ @ @ @ @ @ @ @ @ @ @ @ @ @ @ @ @ @ @ @ @ @ @ @ ",
"@ @ @ @ @ @ @ @ @ @ @ @ @ @ @ @ @ @ $ @ @ @ @ @ @ @ @ @ @ @ @ @ @ @ @ @ @ @ @ $ @ @ @ @ @ @ @ @ @ @ @ @ @ @ @ @ @ @ @ @ @ @ @ @ ",
"@ @ @ @ @ @ @ $ @ @ @ @ @ @ @ @ @ @ @ @ @ @ @ @ @ @ @ @ @ @ @ @ @ @ @ @ @ @ @ @ @ @ @ @ @ @ @ @ @ @ @ @ @ @ @ @ @ @ @ @ @ @ @ @ ",
"@ @ @ @ @ @ @ @ @ @ @ @ @ @ @ @ @ @ @ @ @ @ @ @ @ @ @ @ @ @ @ @ @ @ @ @ @ @ @ @ @ @ @ @ @ @ @ @ @ @ @ @ @ @ @ @ @ @ @ @ @ @ @ @ ",
"@ @ @ @ @ @ @ @ @ @ @ @ @ @ @ @ @ @ @ @ @ @ @ @ @ @ @ @ @ @ @ @ @ @ @ @ @ @ @ @ @ @ @ @ @ @ @ @ @ @ @ @ @ @ @ @ @ @ @ @ @ @ @ @ ",
"@ @ @ @ @ @ @ @ @ @ @ @ @ @ @ @ @ @ @ @ @ @ @ @ @ @ @ @ @ @ @ @ @ @ @ @ @ @ @ @ @ @ @ @ @ @ @ @ @ @ @ $ @ @ @ @ @ @ @ @ @ @ @ @ ",
"@ @ $ @ @ @ @ @ @ $ @ @ @ @ @ @ @ @ @ @ @ @ @ @ @ @ @ @ @ @ @ @ @ @ @ @ @ @ @ @ @ @ @ @ @ @ @ @ @ @ @ @ @ @ @ @ @ @ $ @ @ @ @ @ ",
"@ @ @ @ @ @ @ @ @ @ @ @ @ @ @ @ @ @ @ @ @ @ @ @ @ @ @ @ @ @ @ @ @ @ @ @ @ @ @ @ @ @ @ @ @ @ @ @ @ @ @ @ @ @ @ @ @ @ @ @ @ @ @ @ ",
"@ @ @ @ @ @ @ @ @ @ @ @ @ @ @ @ @ @ @ @ @ @ @ @ @ @ @ @ @ @ @ @ @ @ @ @ @ @ @ @ @ @ @ @ @ @ @ @ @ @ @ @ @ @ @ @ @ @ $ @ @ @ @ @ ",
"@ @ @ @ @ @ @ @ @ @ @ $ @ @ @ @ @ @ @ @ @ @ @ @ @ @ @ @ @ @ @ @ @ @ @ @ @ @ @ @ @ @ @ @ @ @ @ @ @ @ @ @ @ @ @ @ @ @ @ @ @ @ @ @ ",
"@ @ @ @ @ @ @ @ @ @ @ @ @ @ @ @ @ @ @ @ @ @ @ @ @ @ @ @ @ @ @ @ $ @ @ O @ @ @ @ @ @ @ @ @ @ @ @ @ @ @ @ @ @ @ @ @ @ @ @ @ @ @ @ ",
"@ @ @ @ @ @ @ @ @ @ @ @ @ @ @ @ @ @ @ @ @ @ @ @ @ @ @ @ @ @ O . O O O O O O @ @ @ @ @ @ @ @ @ @ @ @ @ @ @ @ @ @ @ @ @ @ @ @ @ @ ",
"@ @ @ @ $ @ @ @ @ @ @ @ @ @ $ @ @ @ @ @ @ @ @ @ @ @ @ @ @ O O . . . . . . O O @ @ @ @ @ @ @ @ @ @ @ @ @ @ @ @ $ @ @ @ @ @ @ @ @ ",
"@ @ @ @ @ @ @ @ @ @ @ @ @ @ O $ @ @ @ @ @ @ @ @ @ @ @ O . % f z z z z z z g * O @ @ @ @ @ @ @ @ @ @ @ @ @ @ @ @ @ @ @ @ @ @ @ @ ",
"@ @ @ @ @ @ @ @ @ @ @ @ @ @ @ $ @ @ @ @ $ $ @ @ @ @ @ O . d w././.~./././.w.d     @ @ @ @ @ @ @ @ @ @ @ @ @ @ @ @ @ @ @ @ @ @ @ ",
"@ @ @ @ @ @ @ @ @ @ @ @ @ @ $ o @ @ @ @ O $ o o @ O . * d ^  X2X:X;X;X:X:X^.^ f * @ @ @ @ @ @ @ @ @ @ @ @ @ @ @ @ @ @ @ @ @ @ @ ",
"@ @ @ @ @ @ @ @ @ @ @ @ @ @ @ @ $ $ O $ $ O @ O . . . d w. X>X>X|.T.R.R.R.R./.w.g . O @ @ @ @ @ @ $ @ @ @ @ @ @ @ @ @ @ @ @ @ @ ",
"@ @ @ @ @ @ @ @ @ @ @ @ @ @ $ @ O o $ $ O $ # 2 e y , M [.2X2X;X{.Y.Y.T.Y.|.<X/.z . O @ @ @ @ @ @ @ @ @ @ @ @ @ @ @ @ @ @ @ @ @ ",
"@ $ @ @ @ @ @ @ @ @ @ @ @ @ @ @ $ o $ o $ & 5 V / ;.~ ;..X2X2X1X;X-X-X-X-X:X2X/.z   . @ @ @ @ @ @ @ @ @ @ @ @ @ @ @ @ @ @ $ @ @ ",
"$ O @ @ @ @ @ @ @ @ @ @ @ @ @ @ $ $ $ o o 2 V W n.V.<.u.R.=X>X>X2X1X2X2X2X1X-XZ.c + @ @ @ @ @ @ @ @ @ @ @ @ @ @ @ @ @ @ @ @ @ @ ",
"$ @ @ @ o $ $ $ $ $ O $ @ @ @ @ o $ O O . t / B.V.V.1.-.1.A.=X2X2X2X2X2X2X-XD.,.Z 7 + @ @ @ @ @ @ @ @ @ @ @ @ @ @ @ @ @ @ @ @ @ ",
"@ @ @ @ $ $ o $ o $ $ o @ @ @ @ $ $ @ O . l s.R.Q.M.<.-.q.F..X=X#X.X.X.X#X'.n.) C 7 & @ @ @ @ @ @ @ @ @ @ @ @ @ @ @ @ @ @ @ @ @ ",
"@ @ @ @ $ . $ $ O $ $ O @ @ @ @ @ @ @ O . x G.&XT.M.<.q.R..X'.D.M.i.i.i.i.n.V.;.y 4 O O @ @ @ @ @ @ @ @ @ @ @ @ @ @ @ @ @ @ @ @ ",
"@ @ @ @ $ $ o o $ $ o $ @ @ @ @ @ $ o O . l j.$X{.A.1.m.}.=X{.D.M.i.i.i.1.1.p.@.y O O @ @ @ @ @ @ @ @ @ @ @ @ @ @ @ @ @ @ @ @ $ ",
"@ @ @ @ @ @ $ $ o $ O $ o $ O $ @ @ $ O O e =.Q.$X}.u.1.A.{.%X-X=X.X.X}.S.p.O.j : O O O @ @ @ @ @ @ @ @ @ @ @ @ @ @ @ @ @ @ @ @ ",
"$ @ @ @ @ @ o $ $ $ $ $ $ $ $ O O O . . . % c >.W.{.u.1.A.{.%X-X;X*X@X!.f.e.O.j : O O O O O O O @ @ @ @ @ $ @ @ @ @ @ @ @ @ @ @ ",
"O @ @ @ @ @ $ $ O $ $ o O o $ $ . . . . . # 0 P >.u.<.i.}.&X{.R.W.k.7.| { O.e.@.t     .     O O O @ @ @ @ @ @ @ @ @ @ @ @ @ @ @ ",
"$ $ @ @ @ @ . $ $ o O $ $ O . % f z z z z v Q E Y Y Y >.'.&X'.R.W.k.7.| { O.0.,.m x z z z z z f % O O @ @ @ @ @ @ @ @ @ @ @ @ @ ",
"@ @ @ @ @ @ @ @ @ @ @ @ @ O   d w.^./.~.~./.[.C.E V B E B._.%X;X-X*X+X!.f.*.I W C.~.~.~.~.~./.w.f o o o $ $ o o $ $ o $ $ $ o $ ",
"@ @ @ @ @ @ @ @ @ @ @ @ @ % d ^  X2X<X;X;X:X:X[.5.S N S c.}.%X;X;X*XOX(.B._ W 5.XX2X:X:X;X:X:X(.M l % $ o $ $ $ $ o $ $ $ O O $ ",
"@ @ @ @ @ @ @ @ @ @ @ O O f w. X>X:X|.T.W.T.R.W.].C.D R J.&X{.T.R.k.7.o.J ` C.XX>X>X}.T.T.R.T.R./.w.f . . $ o $ $ $ o . o $ $ o ",
"@ @ @ @ @ @ @ @ @ @ O O O x /.2X2X;X{.Y.Y.Y.Y.}.<X].R P j.).W.W.W.k.6.o.J ` oX2X2X;X{.Y.Y.Y.Y.|.1X/.z . . $ $ $ O $ $ $ $ O $ $ ",
"@ @ @ @ @ @ @ @ @ @ @ O . z /.2X2X>X;X-X-X-X-X:X1X].R C X.8.).;X;X*X@XE.N.Z..X2X2X>X-X-X-X-X-X:X2X/.z . . $ $ o $ O o $ $ $ o $ ",
"@ @ @ @ @ @ @ @ @ @ @ O . l j.-X>X2X2X2X2X2X2X1X-XZ.R u b #.K.OXOX`.[.J.v.N.'.=X>X2X2X2X2X2X2X1X-XZ.l . . $ $ $ @ $ $ @ $ O O $ ",
"@ @ @ @ @ @ @ @ @ @ @ O o t %.S.-X2X2X2X2X2X2X&XQ._ A A ;.e.#. . .+.T L S I >.S.&X2X2X2X2X2X2X-XD.%.t . o $ o . @ @ @ @ @ $ $ o ",
"@ @ @ @ @ @ @ @ @ @ @ O . y %.S.|.*X`.).).).).E.p.) Z F *.e.O.] ] o.T L S I >.F..X-X#X.X.X.X.X{.n.U t . @ $ $ $ @ @ @ @ @ O $ $ ",
"@ @ @ @ @ @ @ @ @ @ @ O . l Z.$X{.k.#. . . . .#.y.z.S u n O.e.a.r.l.T.J.c.N.'..X'.D.M.m.i.i.i.n.M.;.d . O @ @ @ @ @ @ @ @ @ @ @ ",
"@ @ @ @ @ @ @ @ @ @ @ . . l h.OX{.k.6. .] ] ] O.0._ Z r p ' 3.a.y.g.^.H.N.Z.|.=X{.D.M.b.i.u.1.1.q./ e O o @ @ @ @ @ @ @ @ @ @ @ ",
"@ @ @ @ @ @ @ @ @ @ @ O @ : [ 8.`.-X@XI.f.y.a.0.W C 3 4 r c X.] { o.T R S W N.{.=X-X%X.X%X}.S.x.E V 2 O o $ @ @ @ @ @ @ $ o @ @ ",
"@ @ @ @ @ @ @ @ @ @ @ @ O = i ' U.@X@X(.N.x.x._ Z 5 # 4 N u i s s i r N N S N.{.&X-X;X-XOX(.B._ E V 2 O o $ @ @ @ @ @ @ $ $ @ @ ",
"@ @ @ @ @ @ @ @ @ @ @ @ @ @ = a [ ....+.K S S Z 3 # $ & N 0 > - - ; * 1 6 R H.&X{.R.T.L.6.o.J E 5.( t . O @ @ @ @ @ @ @ O @ @ @ ",
"@ @ @ @ @ @ @ @ @ @ @ @ @ @ O = i s s p r 9 9 7 & o . & 7 7 & O O O O # 5 H G.&X{.Y.T.k.$.n J E :.( y @ . $ @ @ @ @ @ @ $ @ @ @ ",
"@ @ @ @ @ @ @ @ @ @ @ @ @ @ O o = - - ; & & & # $ o $ $ * & O @ O O O O # h s.|.&X;X;X.XL.p.q.z.E C 2 @ $ $ @ @ @ @ @ @ @ @ @ @ ",
"@ @ @ @ @ @ @ @ @ @ @ @ @ o @ @ @ O O @ @ . @ @ . $ $ . $ O @ @ $ $ $ O O , ! l. X;X@X!.f.y.q._ Z 1 # @ o o $ @ @ @ @ @ @ @ @ @ ",
"@ @ @ @ @ @ @ @ @ @ @ @ @ @ @ @ @ O O O @ @ @ O @ @ @ @ @ O @ @ @ @ @ @ o * , M l.P.9. .} X.K Z 3 & O @ @ @ @ @ @ @ @ @ @ @ @ @ ",
"@ @ @ @ @ @ @ @ @ @ @ @ @ @ @ @ @ $ $ $ @ @ @ @ @ @ @ @ @ @ @ @ @ @ @ @ @ .   e ! &.j s s p r 5 # o @ @ @ @ @ @ @ @ @ @ @ @ @ @ ",
"@ @ @ @ @ @ @ @ @ @ @ @ @ @ @ @ @ @ @ @ @ @ @ @ @ @ @ @ @ @ @ @ @ @ @ @ @ O O * t < : - - ; * # @ O @ @ @ @ @ @ @ @ @ @ @ @ @ @ ",
"@ @ @ @ @ @ @ @ @ @ @ @ @ @ @ @ @ @ @ @ @ @ @ @ @ @ @ @ @ @ @ @ @ @ @ @ @ @ @ O O O O O O @ O @ @ @ @ @ @ @ @ @ @ @ @ @ @ @ @ @ ",
"@ @ @ @ @ @ @ @ @ @ @ @ @ @ @ @ @ @ @ @ @ @ @ @ @ @ @ @ @ @ @ @ @ @ @ @ @ @ @ @ @ O O @ @ O @ @ @ @ @ @ @ @ @ @ @ @ @ @ @ @ @ @ ",
"@ @ @ @ @ @ @ @ @ @ @ @ @ @ @ @ @ @ @ @ @ @ @ @ @ @ @ @ @ @ @ @ @ @ @ @ @ @ @ @ @ @ @ @ @ @ @ @ @ @ @ @ @ @ @ @ @ @ @ @ @ @ @ @ ",
"@ @ @ @ @ @ @ @ @ @ @ @ @ @ @ @ @ @ @ @ @ @ @ @ @ @ @ @ @ @ @ @ @ @ @ @ @ @ @ @ @ @ @ @ @ @ @ @ @ @ @ @ @ @ @ @ @ @ @ @ @ @ @ @ ",
"@ @ @ @ @ @ @ @ @ @ @ @ @ @ @ @ @ @ @ @ @ @ @ @ @ @ @ @ @ @ @ @ @ @ @ @ @ @ @ @ @ @ @ @ @ @ @ @ @ @ @ @ @ @ @ @ @ @ @ @ @ @ @ @ ",
"@ @ @ @ @ @ @ @ @ @ @ @ @ @ @ @ @ @ @ @ @ @ @ @ @ @ @ @ @ @ @ @ @ @ @ @ @ @ @ @ @ @ @ @ @ @ @ @ @ @ @ @ @ @ @ @ @ @ @ @ @ @ @ @ ",
"@ $ @ @ @ @ @ @ @ @ $ @ @ @ @ @ @ @ @ @ @ @ @ @ @ @ @ @ @ @ @ @ @ @ @ @ @ @ @ @ @ @ @ @ @ @ @ @ @ @ @ @ @ @ @ @ @ @ @ @ @ @ @ @ ",
"@ @ @ @ @ @ @ @ @ @ @ @ @ @ @ @ @ @ @ @ @ @ @ $ @ @ @ @ @ @ @ @ @ @ @ @ @ @ @ @ @ @ @ $ @ @ @ @ @ @ @ @ @ @ @ @ @ @ @ @ @ @ @ @ ",
"@ @ @ @ @ @ @ @ @ @ @ @ @ @ @ @ @ @ @ @ @ @ @ @ @ @ @ @ @ @ @ @ @ @ @ @ @ @ @ @ @ @ @ @ @ @ @ @ @ @ @ @ @ @ @ @ @ @ @ @ @ @ @ @ ",
"@ @ @ @ @ @ @ @ $ @ @ @ @ @ @ @ @ @ @ @ @ @ @ @ @ @ @ @ @ @ @ @ @ @ @ @ @ @ @ @ @ @ @ @ @ @ @ @ @ $ @ @ @ @ @ @ @ @ @ @ @ @ @ @ ",
"@ @ @ @ @ @ @ @ @ @ @ @ @ @ @ @ @ @ @ @ @ @ @ @ @ @ @ @ @ @ @ @ @ @ @ @ @ @ @ @ @ @ @ @ @ @ @ @ @ @ @ @ @ @ @ @ @ @ @ @ @ @ @ @ ",
"@ @ @ @ @ @ @ @ @ @ @ @ @ @ @ @ @ @ @ @ @ $ @ @ @ @ @ @ @ @ @ @ @ @ @ @ @ @ @ @ @ @ @ @ @ @ @ @ @ @ @ @ @ @ @ @ @ @ @ @ @ @ @ @ ",
"@ @ @ @ @ @ @ @ @ @ @ @ @ @ @ @ @ @ @ @ @ @ @ @ @ @ @ @ @ @ @ @ @ @ @ @ @ @ @ @ @ @ @ @ @ @ @ @ @ @ @ @ $ @ @ @ @ @ @ @ @ @ @ @ "
};
