/* XPM */
static char *c61d89b1d845482cf50830951a8110194OwVlb18B2JprKbI[] = {
/* columns rows colors chars-per-pixel */
"64 64 246 2 ",
"   c #010E04",
".  c #030C0C",
"X  c #0B0B0B",
"o  c #070807",
"O  c #021503",
"+  c #0B1701",
"@  c #031C03",
"#  c #0C1C06",
"$  c #05140C",
"%  c #0C140B",
"&  c #041C0C",
"*  c #0B1C0D",
"=  c #13130C",
"-  c #1B160C",
";  c #131C0C",
":  c #1B1B0E",
">  c #161805",
",  c #000E14",
"<  c #0B0D15",
"1  c #000D1B",
"2  c #0E0F19",
"3  c #130E15",
"4  c #110E1B",
"5  c #1A0D19",
"6  c #051512",
"7  c #0B1316",
"8  c #041B13",
"9  c #0C1C13",
"0  c #03131B",
"q  c #0C151A",
"w  c #031A1A",
"e  c #0C1A1B",
"r  c #131413",
"t  c #121E12",
"y  c #1A1C14",
"u  c #12111C",
"i  c #1B141B",
"p  c #111C1B",
"a  c #1C1918",
"s  c #190E0C",
"d  c #211E0C",
"f  c #2B1C0C",
"g  c #2A150A",
"h  c #331609",
"j  c #221912",
"k  c #2B1D13",
"l  c #281816",
"z  c #361C15",
"x  c #02220B",
"c  c #0C220D",
"v  c #13240C",
"b  c #042214",
"n  c #0C2313",
"m  c #0A2719",
"M  c #132314",
"N  c #1C2213",
"B  c #13231A",
"V  c #1B241A",
"C  c #1B2917",
"Z  c #27210A",
"A  c #352C09",
"S  c #202316",
"D  c #292417",
"F  c #372918",
"G  c #37311D",
"H  c #070D28",
"J  c #011220",
"K  c #051923",
"L  c #051227",
"P  c #131422",
"I  c #160F21",
"U  c #201E23",
"Y  c #1C2427",
"T  c #393723",
"R  c #5E2B0F",
"E  c #59270E",
"W  c #472D1B",
"Q  c #5B2A18",
"!  c #582815",
"~  c #4E341C",
"^  c #46341A",
"/  c #56361B",
"(  c #432B0F",
")  c #652D0A",
"_  c #69290A",
"`  c #67320A",
"'  c #6B340F",
"]  c #74360D",
"[  c #662D16",
"{  c #762E16",
"}  c #663318",
"|  c #643114",
" . c #733112",
".. c #7A3113",
"X. c #7B3118",
"o. c #75331C",
"O. c #762F0F",
"+. c #563622",
"@. c #463223",
"#. c #663423",
"$. c #6A3C2A",
"%. c #7B451F",
"&. c #54432B",
"*. c #5A4A31",
"=. c #6C4C2D",
"-. c #77462A",
";. c #79552F",
":. c #664332",
">. c #794E34",
",. c #774C39",
"<. c #795136",
"1. c #86360B",
"2. c #9C3C04",
"3. c #9E3D0C",
"4. c #973609",
"5. c #863817",
"6. c #9B3A11",
"7. c #95371E",
"8. c #993A17",
"9. c #A43C0C",
"0. c #A93D0E",
"q. c #A63708",
"w. c #B33E0A",
"e. c #B83E0B",
"r. c #A43D12",
"t. c #AB3E13",
"y. c #AE3E19",
"u. c #A83916",
"i. c #B33E12",
"p. c #B33D1B",
"a. c #BB3C16",
"s. c #A72D06",
"d. c #A83A24",
"f. c #9D420B",
"g. c #964406",
"h. c #984516",
"j. c #A4430D",
"k. c #AC430C",
"l. c #A84508",
"z. c #B1430D",
"x. c #B54507",
"c. c #A64313",
"v. c #AB4412",
"b. c #A44812",
"n. c #AB4913",
"m. c #A2421C",
"M. c #AC441A",
"N. c #A94A1B",
"B. c #B24313",
"V. c #B2441A",
"C. c #B9411A",
"Z. c #B34B1C",
"A. c #BC4B1D",
"S. c #B74814",
"D. c #AF5217",
"F. c #874827",
"G. c #9C4628",
"H. c #8A542E",
"J. c #834F34",
"K. c #8D5635",
"L. c #83543B",
"P. c #8A553D",
"I. c #86583A",
"U. c #935939",
"Y. c #91512E",
"T. c #A74A23",
"R. c #BA4B22",
"E. c #BB5424",
"W. c #BA5628",
"Q. c #A45D3C",
"!. c #83613E",
"~. c #B36539",
"^. c #C3501C",
"/. c #C74122",
"(. c #C25D2D",
"). c #C65725",
"_. c #C55C32",
"`. c #CB5D35",
"'. c #C7622C",
"]. c #C56433",
"[. c #CA6435",
"{. c #CD693B",
"}. c #C76639",
"|. c #D46A34",
" X c #DC653A",
".X c #D4663A",
"XX c #D6713D",
"oX c #D3662E",
"OX c #E66A38",
"+X c #EC723C",
"@X c #915544",
"#X c #8C5C46",
"$X c #A45C42",
"%X c #986446",
"&X c #A66646",
"*X c #B96A48",
"=X c #A56855",
"-X c #CA6841",
";X c #D66C46",
":X c #CC7447",
">X c #D57544",
",X c #D17A45",
"<X c #DC744A",
"1X c #D57A4B",
"2X c #DC7C4D",
"3X c #D87647",
"4X c #CE7A55",
"5X c #CB7958",
"6X c #D37554",
"7X c #DC7D54",
"8X c #DD7B5B",
"9X c #D87957",
"0X c #E36B42",
"qX c #E47344",
"wX c #E4744C",
"eX c #E37A4C",
"rX c #EA7A4E",
"tX c #E8744F",
"yX c #EB7753",
"uX c #E47C53",
"iX c #EC7B54",
"pX c #E37C59",
"aX c #EB7D59",
"sX c #F37C54",
"dX c #F77C57",
"fX c #F17D4C",
"gX c #D67C61",
"hX c #E67E62",
"jX c #F07762",
"kX c #DC8353",
"lX c #DB825C",
"zX c #D7845B",
"xX c #D2804E",
"cX c #E8854A",
"vX c #E48253",
"bX c #EC8253",
"nX c #E5835A",
"mX c #EB835B",
"MX c #E78858",
"NX c #F3845B",
"BX c #F88858",
"VX c #F4804F",
"CX c #DC8663",
"ZX c #EF8A61",
"AX c #F98762",
"SX c #F49368",
/* pixels */
"t t t t t t t t m * ; * @ n C ; y t t t ; ; M * $ F P.9XbXrXeXvXtXuX2XeXdX8XK.A x x ; d N t p p x V - - B n # : t t t t t t t t ",
"t t t t t t t t * * y N M n t t 8 & @ C :.@X@X>.<.I.*XuXrXeXuX7XuXkX1X<XiXaX*X;.>.J.P.L.&.v O b O B V t & c ; ; t t t t t t t t ",
"t t t t t t t t M y - y B 9 8 B % x @ A $XjXaX,XkX1XeXrXwXeX7X1X7XkXxX3XwXiX8X5XwXwXmXCX%XA + & - ; n m 9 9 t ; t t t t t t t t ",
"t t t t t t t t M M = r Y 9 $ B #.,.=.F.:XNXbXcXBXVXiXiXuXnXnX2XpXkXkXkXuXiXaXZXVXfXsXNX:XY.$.-.$.- O m B t y * t t t t t t t t ",
"t t t t t t t t @ M t B B * ; G *XlXpX>XkXkX2XeXyXyXuXpX7XvXbXeXyXuXvXMXvXeXeXvXkXuXwXwX<X6X8XhX=XW + & 9 p t 9 t t t t t t t t ",
"t t t t t t t t & n B 8 O > ~ I.,XbXdXrXvXkXeXsX;X-X-X}.].].[.'..X`.`.[.[.].].].;XpXAXaXuXnXZXAX4XU.~ >   * B M t t t t t t t t ",
"t t t t t t t t M n n * # ^ Q.8X2XvXbXuXuXvXiXyXW.M.c.n.c.v.v.v.n.v.v.v.c.b.b.c.W.<XNXiX2X7X2X<XeX7X$X~ > * n t t t t t t t t t ",
"t t t t t t t t t % 8 B T I.9XdXdXuXkX2X.X.X}.~.Z.q.2.l.l.9.r.6.g.f.9.0.9.9.9.q.D.'.|.{.{.3XiXiXcXBX6XL.T n & t t t t t t t t t ",
"B % y C c * M : P w O ( &XaXyXsXzXnXbXqX).v.r.V.t.v.j.f.j.c.t.u.G.M.z.q.9.b.b.j.j.k.k.z.).<XmXnX7XeXbXvXQ.~ * & b * S S c & t j ",
"B t y t * & * % w t ^ K.6XAXNX3X-X{.[.(.Z.j.3.c.9.v.B.B.B.B.z.0.0.w.x.z.v.M.M.0.c.c.9.9.V._.{.{.3X<XsXNX4XJ.^ D m * * * * n B y ",
"* B y 9 n m n 9 # ^ &XhXyXbXMX,XR.Z.M.v.c.j.f.l.9.v.V.p.p.M.n.b.z.z.z.M.m.m.t.e.9.r.r.r.m.M.n.k.E.;XsXsXnXzX%X/ % $ n m 9 t B 9 ",
"* B y 9 B b * C ^ K.hXAXrX>X>X].v.9.3.9.t.v.k.l.z.c.8.X.{ o. .] 5.....o.o.{ 4.z.z.V.M.t.t.r.9.2.r.`.qXqXbXSX4XY.W : x m p r t b ",
"c M t 9 9 O > G &X6XiXrXvX,XW.i.0.9.3.9.i.C.V.c.A.h.R f : j f h j j j l l h ) h.S.B.t.r.9.9.j.v.m.c.E.XXbXvX2X7X=X~ O O 9 a B b ",
"; t 9 9 9 d ~ J.uXAXbX>X,X].t.s.0.j.b.v.p.p.7.X.5.| Z $ $ 0 0 < J 0 , 1 , X F } 1.1.4.c.V.v.c.c.c.3.c.(.XX3XvXBXCXU.^ N 9 9 M 9 ",
"; t n & ; +.&X9XyXmXMX>XW.v.9.c.t.b.b.k.t.7.Q k z k y 6 0 0 K q K 0 0 0 0 0 r k j z R h.Z.V.t.r.9.v.M.c.W.>XbXiXqX1X&X&.; $ 9 y ",
": t n O # =.zXAXiX3X,X[.i.s.c.h.y.c.l.l.r.X.D   . 0 u u 4 7 7 6 X X = r P K 0 . L 1 g _ 6.v.B.V.i.t.r.3.M._.<XwX+XBXgX:.* & B : ",
"m n 8   % *.5XBXlX-XR.v.k.v.t.y.g.z./.d.Q ; 6 P 7 7 7 7 7 7 7 7 7 7 7 7 7 7 7 7 3 w w 7 W G.A.x.9.v.v.c.c.v.E..XcXAX5X*.O O V * ",
"9 t V S G J.:XVX;X(.B.9.j.j.c.c.B.t.8.[ D $ , 4 7 7 7 7 7 7 7 7 7 7 7 7 7 7 7 7 2 0 0 7 z [ 8.v.B.M.k.9.j.9.M.(.>XsX8XL.F : y 9 ",
"a % ; @.%X6XuXqXE.V.9.9.j.j.j.j./.8.E d * 6 6 r 7 7 7 7 7 7 7 7 7 7 7 7 7 7 7 7 7 < q u = g R F.V.v.0.0.k.9.9.Z.W.0XsX4X%X+.: 8 ",
"U $ # =.lXAXqX].B.0.9.9.v.v.k.l.d.[ d & 6 0 7 7 7 7 7 7 7 7 7 7 7 7 7 7 7 7 7 7 8 7 4 u 6   f +.6.c.v.k.z.0.9.c.c.).OXNXCX>.> b ",
"p $ v ;.2X+X^.h.0.9.j.v.i.a.t.r.! f 8 0 L 4 r * 7 7 7 7 7 7 7 7 7 7 7 7 7 7 7 7 6 7 4 q 0 6 r l _ 7.T.M.z.k.9.r.c.n.^.OXvX-.+ b ",
"9 $ * =.3XOXz.6.9.j.j.v.C.p.7.X.= $ 6 0 I 5 7 * 7 7 7 7 7 7 7 7 7 7 7 7 7 7 7 7 6 7 2 q 0 w 6 . h #.F.h.v.k.9.r.c.f.j.oXuX-.+ 8 ",
"n & = =.1XOXB.6.r.c.j.k.t.7.Q k 6 6 6 q u 2 7 7 7 7 7 7 7 7 7 7 7 7 7 7 7 7 7 7 r 7 0 7 q u 6 . r k ! 5.v.v.9.v.0.f.b. XpX>.# $ ",
"x 9 l ,.4X|.t.u.y.v.b.l.r.X.k   u u r 7 6 6 6 q 7 7 7 7 7 7 7 7 7 7 7 7 7 7 7 7 i 7 6 7 i 3 7 8 J X h O.N.v.9.v.a.3.b..X6X>.S p ",
"m / T.(.W.R.M.j.t.0.c.5.( a e 6 7 7 7 7 7 7 7 7 7 7 7 7 7 7 7 7 7 7 7 7 7 7 7 7 7 7 7 7 7 7 7 7 0 o r Y W 1.l.h.j.0.v.W.E._.Q./ ",
"n <.7XXXn.4.r.n.9.w.i.1.h . 7 < 7 7 7 7 7 7 7 7 7 7 7 7 7 7 7 7 7 7 7 7 7 7 7 7 7 7 7 7 7 7 7 7 0 X X < k 1.S.t.b.t.9.3.c..X5X!.",
"* #XmX|.j.4.t.j.j.C.R.5.g . 0 5 7 7 7 7 7 7 7 7 7 7 7 7 7 7 7 7 7 7 7 7 7 7 7 7 7 7 7 7 7 7 7 7 0 7 $ . g 5.A.a.3.V.t.4.9.0XCXI.",
"* P.<X'.c.t.V.j.k.M.G.#.l 6 0 P 7 7 7 7 7 7 7 7 7 7 7 7 7 7 7 7 7 7 7 7 7 7 7 7 7 7 7 7 7 7 7 7 2 u e 6 a #.T.i.3.V.M.3.k. X9X-.",
"; P.uX|.c.q.t.b.w.1./ D i 3 0 w 7 7 7 7 7 7 7 7 7 7 7 7 7 7 7 7 7 7 7 7 7 7 7 7 7 7 7 7 7 7 7 7 < q 7 8 e D R 4.v.V.t.2.k. X7XK.",
"M P.uX|.v.q.0.b.e.] Z $ < 5 0 w 7 7 7 7 7 7 7 7 7 7 7 7 7 7 7 7 7 7 7 7 7 7 7 7 7 7 7 7 7 7 7 7 5 q 6 7 6 , g ] M.V.9.f.k. X9XU.",
"M <.3XoXn.t.i.k.B. .- , J u 7 e 7 7 7 7 7 7 7 7 7 7 7 7 7 7 7 7 7 7 7 7 7 7 7 7 7 7 7 7 7 7 7 7 r q 7 = q 1 - ' k.B.v.f.n. X6XJ.",
"c I.7XoXk.0.V.n.c.o.l 1 K q X 3 7 7 7 7 7 7 7 7 7 7 7 7 7 7 7 7 7 7 7 7 7 7 7 7 7 7 7 7 7 7 7 7 % 0 < s P H i  .l.S.k.2.j. X8XK.",
"* P.aX|.j.9.v.v.B. .j , 0 7 7 7 7 7 7 7 7 7 7 7 7 7 7 7 7 7 7 7 7 7 7 7 7 7 7 7 7 7 7 7 7 7 7 7 6 4 7 $ r 0 r X.c.V.t.f.j. XnXH.",
"n L.wXoXk.9.v.k.B. .j , 0 7 7 7 7 7 7 7 7 7 7 7 7 7 7 7 7 7 7 7 7 7 7 7 7 7 7 7 7 7 7 7 7 7 7 7 6 4 7 $ r 0 r X.c.t.t.f.k..X6XH.",
"M -.`.).k.r.v.k.B. .j , 0 7 7 7 7 7 7 7 7 7 7 7 7 7 7 7 7 7 7 7 7 7 7 7 7 7 7 7 7 7 7 7 7 7 7 7 6 4 7 $ r 0 r X.v.i.t.b.k.).}.%.",
"n } V.S.j.r.v.c.B. .j , 0 7 7 7 7 7 7 7 7 7 7 7 7 7 7 7 7 7 7 7 7 7 7 7 7 7 7 7 7 7 7 7 7 7 7 7 6 4 7 $ r 0 r X.n.i.t.b.j.B.T.' ",
"n R 9.z.j.c.v.c.B. .j , 0 7 7 7 7 7 7 7 7 7 7 7 7 7 7 7 7 7 7 7 7 7 7 7 7 7 7 7 7 7 7 7 7 7 7 7 6 4 7 $ r 0 r X.v.V.t.b.j.0.8.) ",
"M | r.z.j.c.t.k.B. .j , 0 7 7 7 7 7 7 7 7 7 7 7 7 7 7 7 7 7 7 7 7 7 7 7 7 7 7 7 7 7 7 7 7 7 7 7 6 2 7 $ r 0 r X.k.V.t.b.k.i.8.) ",
"n } t.z.j.r.v.k.B. .j , 0 r 7 7 7 7 7 7 7 7 7 7 7 7 7 7 7 7 7 7 7 7 7 7 7 7 7 7 7 7 7 7 7 7 7 7 6 4 7 $ r 0 r X.k.B.r.f.c.B.m.` ",
"* | M.z.j.r.v.c.B. .j , 0 r 7 7 7 7 7 7 7 7 7 7 7 7 7 7 7 7 7 7 7 7 7 7 7 7 7 7 7 7 7 7 7 7 7 7 6 4 7 $ r 0 r X.k.V.9.f.k.C.m.) ",
"c } t.k.b.v.t.v.B. .j , 0 7 7 7 7 7 7 7 7 7 7 7 7 7 7 7 7 7 7 7 7 7 7 7 7 7 7 7 7 7 7 7 7 7 7 7 6 4 7 $ r 0 r X.k.V.0.j.j.i.m.` ",
"c } t.k.b.v.t.v.B. .j , 0 7 7 7 7 7 7 7 7 7 7 7 7 7 7 7 7 7 7 7 7 7 7 7 7 7 7 7 7 7 7 7 7 7 7 7 6 4 7 $ r 0 r X.k.V.0.j.j.i.m.` ",
"c } t.k.b.v.t.c.B. .j , 0 7 7 7 7 7 7 7 7 7 7 7 7 7 7 7 7 7 7 7 7 7 7 7 7 7 7 7 7 7 7 7 7 7 7 7 6 4 7 $ r 0 r X.k.V.0.j.j.i.m.` ",
"c } t.k.b.v.t.v.B. .j , 0 7 7 7 7 7 7 7 7 7 7 7 7 7 7 7 7 7 7 7 7 7 7 7 7 7 7 7 7 7 7 7 7 7 7 7 6 4 7 $ r 0 r X.k.V.0.j.j.i.m.` ",
"c } t.k.j.c.t.v.B. .j , 0 7 7 7 7 7 7 7 7 7 7 7 7 7 7 7 7 7 7 7 7 7 7 7 7 7 7 7 7 7 7 7 7 7 7 7 6 2 7 $ r 0 r X.k.V.0.j.j.i.m.` ",
"c } t.k.b.c.t.c.B. .j , 0 7 7 7 7 7 7 7 7 7 7 7 7 7 7 7 7 7 7 7 7 7 7 7 7 7 7 7 7 7 7 7 7 7 7 7 6 2 7 $ r 0 r X.k.V.0.j.j.i.m.` ",
"c } t.k.b.c.t.c.B. .j , 0 r 7 7 7 7 7 7 7 7 7 7 7 7 7 7 7 7 7 7 7 7 7 7 7 7 7 7 7 7 7 7 7 7 7 7 6 2 7 $ r 0 r X.k.V.0.j.j.i.m.` ",
"c } t.k.b.c.t.c.B. .j , 0 r 7 7 7 7 7 7 7 7 7 7 7 7 7 7 7 7 7 7 7 7 7 7 7 7 7 7 7 7 7 7 7 7 7 7 6 4 7 $ r 0 r X.k.V.0.j.j.i.m.` ",
"c } t.k.b.c.t.c.B. .j , 0 7 7 7 7 7 7 7 7 7 7 7 7 7 7 7 7 7 7 7 7 7 7 7 7 7 7 7 7 7 7 7 7 7 7 7 6 4 7 $ r 0 r X.k.V.9.f.j.i.m.` ",
"c } t.k.b.c.t.c.B. .j , 0 7 7 7 7 7 7 7 7 7 7 7 7 7 7 7 7 7 7 7 7 7 7 7 7 7 7 7 7 7 7 7 7 7 7 7 6 4 7 $ r 0 r X.k.V.9.f.j.i.m.` ",
"c } t.k.b.c.t.v.B. .j , 0 7 7 7 7 7 7 7 7 7 7 7 7 7 7 7 7 7 7 7 7 7 7 7 7 7 7 7 7 7 7 7 7 7 7 7 6 4 7 $ r 0 r X.k.V.0.j.j.i.m.` ",
"c } t.k.b.v.t.v.z. .j , 0 7 7 7 7 7 7 7 7 7 7 7 7 7 7 7 7 7 7 7 7 7 7 7 7 7 7 7 7 7 7 7 7 7 7 7 6 4 7 $ r 0 r X.k.V.0.j.j.i.m.` ",
"c } t.z.b.v.t.v.B. .j , 0 r 7 7 7 7 7 7 7 7 7 7 7 7 7 7 7 7 7 7 7 7 7 7 7 7 7 7 7 7 7 7 7 7 7 7 6 4 7 $ r 0 r X.k.V.0.j.j.i.m.` ",
"c } t.z.b.v.t.c.B. .j , 0 r 7 7 7 7 7 7 7 7 7 7 7 7 7 7 7 7 7 7 7 7 7 7 7 7 7 7 7 7 7 7 7 7 7 7 6 4 7 $ r 0 r X.k.V.0.j.j.i.m.` ",
"c } t.k.b.t.t.c.B. .j , 0 7 7 7 7 7 7 7 7 7 7 7 7 7 7 7 7 7 7 7 7 7 7 7 7 7 7 7 7 7 7 7 7 7 7 7 6 4 7 $ 7 1 r X.k.V.0.j.j.i.m.` ",
"c } t.k.b.t.t.c.B. .j , 0 q 7 7 7 7 7 7 7 7 7 7 7 7 7 7 7 7 7 7 7 7 7 7 7 7 7 7 7 7 7 7 7 7 7 7 6 4 7 $ r 1 r X.k.V.0.j.j.i.m.` ",
"c } t.k.b.c.t.c.B. .j , 0 7 7 7 7 7 7 7 7 7 7 7 7 7 7 7 7 7 7 7 7 7 7 7 7 7 7 7 7 7 7 7 7 7 7 7 $ u e $ 2 J r ..k.V.0.j.j.i.m.` ",
"c } t.k.b.c.t.c.B. .j , 0 7 7 7 7 7 7 7 7 7 7 7 7 7 7 7 7 7 7 7 7 7 7 7 7 7 7 7 7 7 7 7 7 7 7 7 $ u e $ 2 0 - ..k.V.0.j.j.i.m.` ",
"c } t.k.b.c.t.v.B. .j , 0 r 7 q 7 7 7 7 7 7 7 7 7 7 7 7 7 7 7 7 7 7 7 7 7 7 7 7 7 7 7 7 7 7 7 7 $ u e $ 2 J y ..k.V.0.j.j.i.m.` ",
"c } t.k.b.t.t.v.B. .j , 0 r 7 q 7 7 7 7 7 7 7 7 7 7 7 7 7 7 7 7 7 7 7 7 7 7 7 7 7 7 7 7 7 7 7 7 6 u e $ 2 J y ..k.V.0.j.j.i.m.` ",
"c } t.k.b.c.t.v.B. .j , 0 7 7 q 7 7 7 7 7 7 7 7 7 7 7 7 7 7 7 7 7 7 7 7 7 7 7 7 7 7 7 7 7 7 7 7 6 u e $ 2 J y ..k.V.0.j.j.i.m.` ",
"c } t.k.b.c.t.v.B. .j , 0 7 7 q 7 7 7 7 7 7 7 7 7 7 7 7 7 7 7 7 7 7 7 7 7 7 7 7 7 7 7 7 7 7 7 7 6 u e $ 2 J y ..k.V.0.j.j.i.m.` ",
"c } t.k.b.c.t.v.B. .j , 0 7 7 7 7 7 7 7 7 7 7 7 7 7 7 7 7 7 7 7 7 7 7 7 7 7 7 7 7 7 7 7 7 7 7 7 6 u e $ 2 J r ..k.V.9.j.j.i.m.` ",
"c } t.k.b.c.t.v.B. .j , 0 7 7 7 q q q q p p q q q q q q p p q q q q q q p p q q q q q q p p q q 6 u e $ 2 J r ..k.V.9.j.j.i.m.` "
};
