/* XPM */
static char *result[] = {
/* columns rows colors chars-per-pixel */
"64 64 9 1 ",
"  c #111F12",
". c #112115",
"X c #12241C",
"o c #122520",
"O c #142E31",
"+ c #15323C",
"@ c #152F35",
"# c #132927",
"$ c white",
/* pixels */
"                                                                ",
"                                                                ",
"                                                                ",
"                                                                ",
"                                                                ",
"                                                                ",
"                                                                ",
"                                                                ",
"                                                                ",
"                                                                ",
"                                                                ",
"                                                                ",
"                                                                ",
"                                                                ",
"                                                                ",
"                                                                ",
"                                                                ",
"                                                                ",
"                                                                ",
"                                                                ",
"                                                                ",
"                     .XooX.                                     ",
"                     XO++OX                                     ",
"                     XO++@#X.          .XX.                     ",
"                     .Xoo#@OX          XOOX                     ",
"                         o++o        .X#@OX                     ",
"                         o++o        XO@#X.                     ",
"                         XO@#X.      o++o                       ",
"                         .X#@OX      o++o                       ",
"                           o++o    .X#@OX                       ",
"                           o++o    XO@#X.                       ",
"                           o++o.XX.o++o    .XX.                 ",
"                           o++oXOOXo++o    XOOX                 ",
"                     .XX.  o++oo++oo++o  .X#@OX                 ",
"                     XOOX  o++oo++oo++o  XO@#X.                 ",
"                     XO@#X.o++oo++oo++o  o++o                   ",
"                     .X#@OXo++oo++oo++o  o++o                   ",
"                       o++oo++oo++oo++o.X#@OX                   ",
"                       o++oo++oo++oo++oXO@#X.                   ",
"                       o++oo++oo++oo++oo++o                     ",
"                       o++oo++oo++oo++oo++o                     ",
"                       o++oo++oo++oo++oo++o                     ",
"                       o++oo++oo++oo++oo++o                     ",
"                       XOOXo++oXOOXo++oXOOX                     ",
"                       .XX.o++o.XX.o++o.XX.                     ",
"                           XOOX    XOOX                         ",
"                           .XX.    .XX.                         ",
"                                                                ",
"                                                                ",
"                                                                ",
"                                                                ",
"                                                                ",
"                                                                ",
"                                                                ",
"                                                                ",
"                                                                ",
"                                                                ",
"                                                                ",
"                                                                ",
"                                                                ",
"                                                                ",
"                                                                ",
"                                                                ",
"                                                                "
};
