/* XPM */
static char *result[] = {
/* columns rows colors chars-per-pixel */
"64 64 231 2 ",
"   c #0E1C0D",
".  c #091506",
"X  c #101D0E",
"o  c #0E1E12",
"O  c #111F12",
"+  c #2F1E1C",
"@  c #0F2018",
"#  c #1B2212",
"$  c #13221B",
"%  c #192518",
"&  c #18200C",
"*  c #35250D",
"=  c #2B2511",
"-  c #2D2A18",
";  c #362711",
":  c #372B19",
">  c #372C18",
",  c #111C24",
"<  c #0F173B",
"1  c #1A2A35",
"2  c #1C2C39",
"3  c #172833",
"4  c #163433",
"5  c #17393D",
"6  c #17292E",
"7  c #253529",
"8  c #3B3628",
"9  c #283939",
"0  c #2F2F34",
"q  c #2B1D34",
"w  c #522E11",
"e  c #422A15",
"r  c #683211",
"t  c #7D3209",
"y  c #483731",
"u  c #36463B",
"i  c #344336",
"p  c #664438",
"a  c #4A4132",
"s  c #131C47",
"d  c #0D2248",
"f  c #1E2F43",
"g  c #1B2A4E",
"h  c #1F3045",
"j  c #1A3D41",
"k  c #1E3248",
"l  c #1E3659",
"z  c #213145",
"x  c #293448",
"c  c #3D3C4D",
"v  c #3E215F",
"b  c #343A59",
"n  c #191868",
"m  c #19167D",
"M  c #18167C",
"N  c #241D73",
"B  c #1B3970",
"V  c #293B6A",
"C  c #33256E",
"Z  c #473E46",
"A  c #483075",
"S  c #324750",
"D  c #1A4470",
"F  c #2E5070",
"G  c #25647D",
"H  c #1E4B5B",
"J  c #474255",
"K  c #6F524B",
"L  c #4B605B",
"P  c #485273",
"I  c #6C5275",
"U  c #586F77",
"Y  c #667A73",
"T  c #863911",
"R  c #8C3A11",
"E  c #893C1A",
"W  c #913B11",
"Q  c #85380E",
"!  c #A13F11",
"~  c #893728",
"^  c #AA4110",
"/  c #B04210",
"(  c #934736",
")  c #AC4726",
"_  c #944018",
"`  c #DA512E",
"'  c #D64E32",
"]  c #D85130",
"[  c #D55134",
"{  c #D84F2F",
"}  c #954A42",
"|  c #B6575D",
" . c #A75445",
".. c #996C6C",
"X. c #B27476",
"o. c #C4544E",
"O. c #D97449",
"+. c #D37A52",
"@. c #6E827B",
"#. c #CE897D",
"$. c #C58478",
"%. c #D78C7D",
"&. c #D2B57E",
"*. c #F8DF70",
"=. c #1B1982",
"-. c #1C1680",
";. c #1F238C",
":. c #272586",
">. c #2E3482",
",. c #333785",
"<. c #262993",
"1. c #262A9A",
"2. c #223595",
"3. c #2D35A4",
"4. c #2C38AB",
"5. c #3139A8",
"6. c #271F81",
"7. c #473586",
"8. c #543C86",
"9. c #314586",
"0. c #33478A",
"q. c #32498E",
"w. c #2D4586",
"e. c #2A6998",
"r. c #2C739A",
"t. c #3D52AD",
"y. c #3745B8",
"u. c #3E54B2",
"i. c #3B54B9",
"p. c #394AAE",
"a. c #2B7AA2",
"s. c #2C7CB1",
"d. c #2B64B3",
"f. c #534C8F",
"g. c #6F508E",
"h. c #5D728C",
"j. c #567497",
"k. c #627888",
"l. c #627692",
"z. c #4553AD",
"x. c #575EAA",
"c. c #4157BB",
"v. c #4258BE",
"b. c #4858B5",
"n. c #4A4EA9",
"m. c #795DA6",
"M. c #755CAB",
"N. c #6B5EB7",
"B. c #655CAF",
"V. c #516BAC",
"C. c #6C61BC",
"Z. c #6F6CB2",
"A. c #3E4FC7",
"S. c #3F51CB",
"D. c #3F50C6",
"F. c #3D52D2",
"G. c #307CC3",
"H. c #4254CE",
"J. c #4457C6",
"K. c #4255D1",
"L. c #495FDB",
"P. c #475DD8",
"I. c #566FCD",
"U. c #4B62DE",
"Y. c #4960D7",
"T. c #5563D6",
"R. c #5A72C9",
"E. c #6B76CC",
"W. c #475FE2",
"Q. c #4763E5",
"!. c #4C63E2",
"~. c #4D65E8",
"^. c #4462E9",
"/. c #536AE3",
"(. c #647CE5",
"). c #6279E4",
"_. c #935B8B",
"`. c #9D6D8C",
"'. c #A1718F",
"]. c #8B7AB0",
"[. c #AC7EA8",
"{. c #3887BA",
"}. c #6A859C",
"|. c #6C87A6",
" X c #6D88A9",
".X c #5097B9",
"XX c #6A82E7",
"oX c #6097CB",
"OX c #889E99",
"+X c #9A849C",
"@X c #AA8895",
"#X c #8F8FA7",
"$X c #8FA4BB",
"%X c #B79FA5",
"&X c #D6928B",
"*X c #C98796",
"=X c #CE8C90",
"-X c #EE9A8A",
";X c #FFAC9E",
":X c #F7A398",
">X c #F7A899",
",X c #FDAEA2",
"<X c #F9BBB2",
"1X c #EEB0A9",
"2X c #D4A3A4",
"3X c #D8D991",
"4X c #FFFF82",
"5X c #FBC0B7",
"6X c #8AA3EC",
"7X c #97B0EF",
"8X c #A1BAEF",
"9X c #97A7D8",
"0X c #96C1D8",
"qX c #BAD3D2",
"wX c #B7CFD0",
"eX c #B8CEE4",
"rX c #BAD4F3",
"tX c #B9D1E9",
"yX c #9BD1E6",
"uX c #C1DAD9",
"iX c #EFD1CD",
"pX c #C3DDF6",
"aX c #C3DEF9",
"sX c #C1D3E8",
"dX c #C8E3F9",
"fX c #D4EEF6",
"gX c #DEF9FC",
"hX c #D9F3F9",
"jX c #D6EAEC",
"kX c #E6E9E9",
"lX c #E2FDFD",
/* pixels */
"O O O O O O O & O O O O O O O O O O O O O O O O O O O O O X X X X   X   X     X     X   O O O O O O O O O O O O O O O O O O O O ",
"O O O O O O O @ X @ O O O O O O O O O O O O O O O O O O X $ 1 f f 2 h 2 2 z z 2 f k z 2 O O O O O O O O O O O O O O O O O O O O ",
"X @ O O O O O O O O O O & @ O O O O O O O O O O O @ O X   3 9.z.z.t.t.t.t.t.t.t.t.z.c.0.2 o X O O O O O O O O O O O O O O O O O ",
"& X @ O O O O O O O O O O O O O O O O O O O O O O X   % 1 V v.~.~.~.!.!.!.!.~.Y.v.t.c.0.2 O O O O O O O O O o O o O O O O O O O ",
"@ O @ & O O @ X O O O O O O O O O O O O O @ O O O     1 9.v.P.!.!.~.!.~.!.~.~.c.V z z 2 $ X O O O O O O O O O o O O O O O O O O ",
"@ O X @ @ O O O O O O O O @ O O O O O O   X X   X @ 1 V v.~.~.!.!.L.!.L.U.!.!.t.2       O O O O O O O O O O = ; ; = O o O O O O ",
"X @ X & X & @ & O O O O O O O O O O X X X         2 0.J.P.~.~.L.!.L.!.!.W.~.~.z.2   X X O O O O O O O O o = r W T r = o o O O O ",
"& O @ X @ X X @ & O O O O O O O O @   @ 7 i 9 9 7 S V.I.I.I.I.I.I.I.I.I.I.I.!.t.f   X O O O O O O O O O = w R ! ! W w = O O O O ",
"O O O O O O O @ @ O O O O O O O @ X   7 L Y U Y Y k.}. X|.|.|.|.|.|.|.|.|. X/.p.f     @ O O O O O o o * r ! ! / ! ! W r = o o O ",
"O O O O O O O O O O O O O O O O   $ 4 S U h.l.l.h.h.h.j.h.h.h.h.h.h.h.k.l.l.R.x.S 7 @   O O O O O o o ; R / / ! ! ! W r = o o O ",
"O O O O O O O O O O O O O O O X   4 e.e.q.>.>.>.>.>.>.>.>.C ,.>.>.>.,.,.,.q.l.}.h.L 7 . X O O O O o O ; Q ! ! / ! W w = O O O O ",
"O O O O O O & @ O O O O O O O X   1 e.d.2.-.-.6.7.f.8.8.8.8.8.8.8.7.6.m M >.f.l.l.U S 4 $ O O O O o X ; W ! / / / ! w = O O O O ",
"O O O O O O O O O O O O O @ O X X 3 B 1.:.-.m 7.`.*X*X*X*X*X*X=X*X'.7.M M m >.,.,.q.e.G 4 X X O O o o ; R ! ! ! ! ! W r * O O O ",
"O O O O O O O O O @ & O O O O X O , s N m -.-.A ..=X-X,X,X-X=XX.X.X.g.7.6.m -.m M 2.s.{.j X X O O o o ; W ! ! ! ! ! W r = O O O ",
"O O O O O O O O O O O O O O O O O O , s n =.-.n q K &X,X;X#.p + + p X.`.7.-.-.m =.2.G.a.j X X O o o o ; W ! ! ! ! W w = O O O O ",
"O O O O O O O O O O O O O O O O O X X , s N N N q p X.,X;X&Xp + + K =X*X8.m n n n B e.G 4 X X O O o o ; W / / ! ! W = o O O O O ",
"O O O O O O O O O O O O O O O O O     @ @ < n C ..=X-X,X,X-X=XX.X.=X:X*X8.n < o , 3 2 4 $ O O O O o o ; T ^ ^ / / T ; o o O O O ",
"O O O O O O X X o o   O O O @ O   % u u % 6 P Z.2X<X,X,X:X,X<X<X5X<X<X*X8.N S i %       O O O O O o o = r R ^ W R r = o o @ O O ",
"O O O O @ X X X     . .   O O     u OXOXi 9 #XtXjXiX,X:X:X,XiXkXkXkXkXwXn.,.$XOXu .   O o O O O O O O O = w R W w = # o O & O @ ",
"O O O O   % 4 5 j j j 4 $   O % u @.uXqXY Y qXlXgXkXiX<X<XiXjXlXgXgXgXtXZ.Z.sXuX@.u % o O O O O O O O O o ; T T ; o o o O X @ X ",
"o o o     4 G r.a.a.a.e.4 .   u OXuXhXfXqXqXjXgXgXhXkXkXkXkXhXlXgXgXgXfXtXtXfXhXuXOXS X   O O O O O o o o ; T T ; o o O @ O O O ",
"O o o @ 4 F .XoX{.s.s.e.H 4 @ u OXuXfXlXlXlXgXgXgXgXgXgXgXgXlXhXgXgXgXgXlXlXlXfXqXOXi . o O O O O O o o o ; T T * o o O O O O O ",
"O     4 G .XyX0Xj.l D D e.G 4 % u @.qXlXlXgXgXgXgXgXgXgXgXhXgXgXgXgXgXgXlXlXlXqXY i % X O O O O O o o o o ; Q T ;   O O & X O O ",
"O     5 {..X0X$XF d 3 B {.a.j . . u $XdXhXgXgXgXgXgXgXgXgXgXgXgXgXgXgXgXgXgXlXwXY u z 1 O X O O o = 8 8 $ = Q W p 0 % o o @ O O ",
"O     j a.{.e.F g d d D s.a.j   . 9 V.6XaXgXgXgXgXgXgXgXgXgXgXgXgXgXgXgXgXgXgXjXqX$XV.,.2   X   X y ....8 * t ) +...8 @ o X X @ ",
"O O   j a.s.P b g g d B s.a.5 % i P R.6XaXlXlXgXgXgXgXgXgXgXgXgXgXgXgXgXgXgXgXlXlXaX7XR.F 3 O O 1 J @X@XK p ( O.-X$.a     @ O O ",
"@     j a..X+X..b d d D s.r.5 i OXqXtXrXfXgXgXgXgXgXgXgXgXgXgXgXgXgXgXgXgXgXlXlXlXlXdXyXR.,.6 6 9.b.E.].@X$.%.-X>X$.a     O O O ",
"o o   i }.$X2X=XJ g c P {.a.4 S $XdXgXlXgXgXgXgXgXlXgXgXgXgXgXgXgXgXlXgXgXhXrXrXrXsXsX9X).c.V V c.~.F.C.2X;X;X,X=X'.J 4 @ O X O ",
"o     a @X2X;X=XJ b ..@XoXa.4 2 V.7XdXlXgXgXgXgXlXlXgXgXgXgXgXgXgXgXlXgXlXpX6XXXXXXXx.n.T.P.c.c.L.K.3.f.*X;X;X=Xg.7.z.0.4 o O O ",
"o o   i ..%.:X&XI I &X2X$X{.b V D.(.8XdXhXlXlXhXpXpXhXlXgXgXlXhXdXrXrXpXhXdX6X).K.y.1.3.H.!.!.~./.A.<.8.*X;X;X*X8.1.S.u.z   X O ",
"o O o % 8 K %.:X-X&X>X1X2X%XB.i.P.!.(.6XdXlXlXaX6X6XrXlXlXlXlXpX6XXXXX6XdXgXdX9Xn.1.y.H.P.U.~.!.~.A.<.7.*X;X,X*X8.1.S.u.z X X @ ",
"o O O   . i @X2X2X*X*X*X=X[.E.W.Q.L.L.).9XeXrX8X).).7XdXhXhXpX8X).P.W.(.8XrXtX$Xn.3.H.!.!.L.L.!.!.A.<.7.`.=X-XX.7.1.H.t.h X X X ",
"O O O     0 x.E.f.8.8.8.8.f.J./.!.!.!.J.n.b.E.(././.(.6XdXdX6X)./.Q.P./.XX(.x.n.c.H.Y.!.U.U.U.!./.H.<.N ,.I  .} v 1.S.u.f   O O ",
"O O O X o 2 p.F.1.m m m -.1.J.U.!.!./.H.3.3.y.A.A.S.P.(.8X8XXXP.S.D.H.H.H.5.1.3.H.~.!.!.U.!.U.!.!.H.5.<.=.v ~ ~ v 1.K.z.h O X O ",
"O O O X X f u.F.1.-.-.m m <.H.U.U.!.U.L.H.y.3.<.<.3.S./.XX(./.S.3.<.<.<.<.3.y.H.Y.!.~.Q./.U.U.!.!.P.K.y.<.v ~ ~ v 1.K.c.z   X O ",
"O O O X   z z.K.1.-.m -.<.5.K.!.!.U.!.!.~.K.5.:.<.5.H.!.U.!.!.H.5.<.<.<.<.5.K./.!.Y.J.J.P.U.U.U.U.U.~.K.4.A ~ ~ A 5.y.0.2   X O ",
"O O @ X X z z.K.1.m N <.y.K.Y.!.U.!.!.!.!.U.H.H.A.H.Y.!.U.!.U.Y.J.H.A.H.J.H.P.~.!.J.w.w.J.!.!.U.!.U.!.U.K.f.( } f.y.V 3 O O O O ",
"O O O X X 2 0.p.5.<.1.5.K.Q.!.!./.P.c.c.P.Q.!.!.!.U.!.U.U.U.U.!.!.!.L./.L.!.U.!.~.i.l H u.~.!.U.U.U.U.!.~.B.( ( f.0.2   O O O O ",
"O O O O X $ 1 V p.H.H.K.Y.!.U.!.~.i.V V i.^.!.!.!.!.U.U.U.U.U.!.L.!.!.!.!.U.!.!.^.i.k k u.~.!.U.!.U.U.~.~.B.} E y f O o O O O O ",
"O O O O O X . 1 0.c.z.v.T.!.~.Y.v.9.1 - I C.T.Q.!.!.!.Q.Q.!.Q.!.~.!.W.!.L.W.~.T.N.I 7 1 9.v.Y.!.!.!.!.Y.D.f.( Q * o o O O O O O ",
"O O O O O X X $ 1 9 f V v.~.~.v.V 1 o e ) | N.^.Q.Q.Q.Q.Q.Q.Q.Q.W.Q.!.Q./.!.^.N.o.) e O 3 V v.~.!././.D.V y E T ;   o O O O O O ",
"O O O O O O @ X X     3 9.u.c.0.1     : ) o._.M.M.m.m.m.m.m.m.m.m.M.].oXXX XZ._.o.) e o   3 9.J.Y.Y.D.w.6 * Q T ; o o O O O O O ",
"@ O @ O O O & O X X   $ 2 z h 1 O     0 f._.o.] ` ] ] ] [ ` ` ` [ O.&X3X3X&.O.o._.f.2 O   # 1 V J.J.V 3 @ * T T ; o o O X @ O O ",
"X & O O O O O O O O @ X X       O X   f u.C.| ` ` ] ] ] ` [ [ ` ' O.*.4X*.*.O.| N.i.f X X X X 1 0.0.3     ; R T ; o o O @ O O O ",
"X @ O & O O O O @ & O O X X X X X X   f u.T.N.m.m.m.m.m.m.m.m.M.M.+X3X*.*.3X+XN.T.u.f     X X $ 4 2 $     * R T * @ X O X O O @ ",
"& X @ X O O O O O O O O O O O X X $ 3 V c.!.~.~.Q.Q.Q.Q.Q.Q.^.T.B.].%X3X*.3XE.^.W.c.V 1 $ X O X   X X @ @ ; T T ;   @ O & @ & X ",
"@ X O @ X @ O O O O O O O O O X X 1 9.v.P.!.!.Q.!.!.Q.!.Q.Q.Q.C.| | ].+XO.O.Z.~.~.P.c.9.1   O X O   @   @ * T T ; X X @ @ & O @ ",
"& @ O @ & X @ O O O O O O O @ X X z u.~.!.U.U.U.U.U.U.U.U.Q.Q.m.[ [ B.M.` ` m.U.W.~.~.z.z   X @ O O O @ X ; T T * @ X @ X X @ X ",
"O X O O O O O O O O O O O O O X X f z.~.!.U.U./.U.!.U.!.U.!.Q.m.[ [ M.M.[ { m.Q.!.!.~.u.z   X O O O O X X * T T ; @ O O O O O O ",
"O @ O @ O O O O O O O O O O O X X f t.!.!.U.U.!.!.U.U.U.U.!.Q.m.[ [ M.M.[ ` m.Q.Q.!.!.t.2 X X O O O @ X @ ; T T ; X X O O O O O ",
"O O O O O O O O O O O O O O O X X f t.~.~.U.!.U.U.U.!.U.!.Q.^.m.[ [ M.M.[ ` m.!.!.!.!.t.z X X O O @ O X o * T R ; @ o @ O O @ O ",
"& O O O O O O O @ & @ O O O O X X f t.!.!.U.U.!.!.!.U./.!.!.!.M.| | N.B.| | C.!.!.~.!.t.h X X O O X X @ @ ; T T ; X o X O O O O ",
"O O O O O O O O O O O O O O O X   f u.!.!.!.U.!.U.!.U./.U.U.!.T.C.N.T.T.C.N.T.U.U.!.~.t.z O O O O O @ X X ; T T ; o o O O O O O ",
"X @ O O O O O O O O O O O O O X   z u.~.~.!.!.!.!.U.U.!.!.U.U.!.U.!.U.U.Q.Q.Y.U.U.!.!.t.2     O O O X X @ ; T T ; o o O O O O O ",
"O O O O O O O X O O @ O O O O X   f u.~.~.!./.!.U.U.U.!.!.U.U.U.!.!.U.U.!.!.!.U.U.!.!.t.h   X O O O O @ o ; T T ; o O O O O O O ",
"O O O O @ & O @ O O & O O O O X   2 9.u.z.z.n.b.T.Q.!.!.!.!.!.U.U.!.U.!./.U.U.!.U.!.~.u.z   X O O O O X o * T R ; o O O O O O O ",
"O O O O O O O O O O O O O O O O X % 1 k h z S P v.~.~.!.!./.!.U.U.!.U.U./.U.!.U.U.!.~.z.h X X O O O @ X O ; R R ; o @ O O O O O ",
"O O O O O O O O O O O O O O O O O O X X O = ; J f.b.b.b.z.c.P.!.!.!.!.!.!.!.!.!.~.Y.v.9.1 X   O O O O O X = r r = O X O O O O O ",
"O O O O O O O O O O O O O O O O O X O # - > y a J J J c z V v.~.~.Q.~.U.!./.!.~.~.v.F 6 $ X @ O O O O O O O = = # X O O O O O O ",
"O O O O O O O O O O O O O O O O @ X O # > 8 > > > > : ; X 1 9.u.t.z.b.b.b.b.b.b.z.,.6   @ X O O O O O O O O @ X X @ O O O O O O ",
"O @ & O O O O @ O O O O O O O O O O O O % # # # = # # # X $ 1 f z x S J J J J Z x 1 %   O O O O O O O O O O O O O O O O O O O O ",
"O O @ O O O O & O O O O O O O O O O O   O O O o o O O O O X X X   # ; : > > : - O   O @ O O O O O O O O O O O O O O O O O O O O ",
"O O O O O O O O O O O O O O O O O O @ X O O O O O   O O O O X X   O # # # = % # O & O O O O O O O O O O O O O O O O O O O O O O ",
"O O O O O O O O O O O O @ & @ O O O O O O O O O O O O O O O O O O O o o o X X @ O O O O O O O O O O O O O O O O O O O @ O O O O "
};
